0
SECTION
2
HEADER
9
$INSUNITS
70
4
0
ENDSEC
0
SECTION
2
TABLES
0
TABLE
2
LTYPE
0
LTYPE
72
65
70
64
2
CONTINUOUS
3
______
73
0
40
0
0
ENDTAB
0
TABLE
2
LAYER
0
ENDTAB
0
ENDSEC
0
SECTION
2
ENTITIES
0
LINE
8
0
10
3.025
20
-2.525
11
16.025
21
-2.525
0
LINE
8
0
10
3.025
20
-16.525
11
16.025
21
-16.525
0
LINE
8
0
10
2.525
20
-3.025
11
2.525
21
-16.025
0
LINE
8
0
10
16.525
20
-3.025
11
16.525
21
-16.025
0
ARC
8
0
10
3.025
20
-3.025
40
0.5
50
90
51
180
0
ARC
8
0
10
16.025
20
-3.025
40
0.5
50
0
51
90
0
ARC
8
0
10
3.025
20
-16.025
40
0.5
50
180
51
270
0
ARC
8
0
10
16.025
20
-16.025
40
0.5
50
270
51
0
0
LINE
8
0
10
22.075
20
-2.525
11
35.075
21
-2.525
0
LINE
8
0
10
22.075
20
-16.525
11
35.075
21
-16.525
0
LINE
8
0
10
21.575
20
-3.025
11
21.575
21
-16.025
0
LINE
8
0
10
35.575
20
-3.025
11
35.575
21
-16.025
0
ARC
8
0
10
22.075
20
-3.025
40
0.5
50
90
51
180
0
ARC
8
0
10
35.075
20
-3.025
40
0.5
50
0
51
90
0
ARC
8
0
10
22.075
20
-16.025
40
0.5
50
180
51
270
0
ARC
8
0
10
35.075
20
-16.025
40
0.5
50
270
51
0
0
LINE
8
0
10
41.125
20
-2.525
11
54.125
21
-2.525
0
LINE
8
0
10
41.125
20
-16.525
11
54.125
21
-16.525
0
LINE
8
0
10
40.625
20
-3.025
11
40.625
21
-16.025
0
LINE
8
0
10
54.625
20
-3.025
11
54.625
21
-16.025
0
ARC
8
0
10
41.125
20
-3.025
40
0.5
50
90
51
180
0
ARC
8
0
10
54.125
20
-3.025
40
0.5
50
0
51
90
0
ARC
8
0
10
41.125
20
-16.025
40
0.5
50
180
51
270
0
ARC
8
0
10
54.125
20
-16.025
40
0.5
50
270
51
0
0
LINE
8
0
10
60.175
20
-2.525
11
73.175
21
-2.525
0
LINE
8
0
10
60.175
20
-16.525
11
73.175
21
-16.525
0
LINE
8
0
10
59.675
20
-3.025
11
59.675
21
-16.025
0
LINE
8
0
10
73.675
20
-3.025
11
73.675
21
-16.025
0
ARC
8
0
10
60.175
20
-3.025
40
0.5
50
90
51
180
0
ARC
8
0
10
73.175
20
-3.025
40
0.5
50
0
51
90
0
ARC
8
0
10
60.175
20
-16.025
40
0.5
50
180
51
270
0
ARC
8
0
10
73.175
20
-16.025
40
0.5
50
270
51
0
0
LINE
8
0
10
99.86875
20
-12.55
11
99.86875
21
-25.55
0
LINE
8
0
10
85.86875
20
-12.55
11
85.86875
21
-25.55
0
LINE
8
0
10
99.36875
20
-12.05
11
86.36875
21
-12.05
0
LINE
8
0
10
99.36875
20
-26.05
11
86.36875
21
-26.05
0
ARC
8
0
10
99.36875
20
-12.55
40
0.5
50
0
51
90
0
ARC
8
0
10
99.36875
20
-25.55
40
0.5
50
270
51
0
0
ARC
8
0
10
86.36875
20
-12.55
40
0.5
50
90
51
180
0
ARC
8
0
10
86.36875
20
-25.55
40
0.5
50
180
51
270
0
LINE
8
0
10
98.86875
20
-4.112
11
98.86875
21
-10.112
0
LINE
8
0
10
83.86875
20
-4.112
11
83.86875
21
-10.112
0
LINE
8
0
10
98.36875
20
-3.612
11
84.36875
21
-3.612
0
LINE
8
0
10
98.36875
20
-10.612
11
84.36875
21
-10.612
0
ARC
8
0
10
98.36875
20
-4.112
40
0.5
50
0
51
90
0
ARC
8
0
10
98.36875
20
-10.112
40
0.5
50
270
51
0
0
ARC
8
0
10
84.36875
20
-4.112
40
0.5
50
90
51
180
0
ARC
8
0
10
84.36875
20
-10.112
40
0.5
50
180
51
270
0
LINE
8
0
10
98.86875
20
-27.988
11
98.86875
21
-33.988
0
LINE
8
0
10
83.86875
20
-27.988
11
83.86875
21
-33.988
0
LINE
8
0
10
98.36875
20
-27.488
11
84.36875
21
-27.488
0
LINE
8
0
10
98.36875
20
-34.488
11
84.36875
21
-34.488
0
ARC
8
0
10
98.36875
20
-27.988
40
0.5
50
0
51
90
0
ARC
8
0
10
98.36875
20
-33.988
40
0.5
50
270
51
0
0
ARC
8
0
10
84.36875
20
-27.988
40
0.5
50
90
51
180
0
ARC
8
0
10
84.36875
20
-33.988
40
0.5
50
180
51
270
0
LINE
8
0
10
5.40625
20
-21.575
11
18.40625
21
-21.575
0
LINE
8
0
10
5.40625
20
-35.575
11
18.40625
21
-35.575
0
LINE
8
0
10
4.90625
20
-22.075
11
4.90625
21
-35.075
0
LINE
8
0
10
18.90625
20
-22.075
11
18.90625
21
-35.075
0
ARC
8
0
10
5.40625
20
-22.075
40
0.5
50
90
51
180
0
ARC
8
0
10
18.40625
20
-22.075
40
0.5
50
0
51
90
0
ARC
8
0
10
5.40625
20
-35.075
40
0.5
50
180
51
270
0
ARC
8
0
10
18.40625
20
-35.075
40
0.5
50
270
51
0
0
LINE
8
0
10
26.8375
20
-21.575
11
39.8375
21
-21.575
0
LINE
8
0
10
26.8375
20
-35.575
11
39.8375
21
-35.575
0
LINE
8
0
10
26.3375
20
-22.075
11
26.3375
21
-35.075
0
LINE
8
0
10
40.3375
20
-22.075
11
40.3375
21
-35.075
0
ARC
8
0
10
26.8375
20
-22.075
40
0.5
50
90
51
180
0
ARC
8
0
10
39.8375
20
-22.075
40
0.5
50
0
51
90
0
ARC
8
0
10
26.8375
20
-35.075
40
0.5
50
180
51
270
0
ARC
8
0
10
39.8375
20
-35.075
40
0.5
50
270
51
0
0
LINE
8
0
10
45.8875
20
-21.575
11
58.8875
21
-21.575
0
LINE
8
0
10
45.8875
20
-35.575
11
58.8875
21
-35.575
0
LINE
8
0
10
45.3875
20
-22.075
11
45.3875
21
-35.075
0
LINE
8
0
10
59.3875
20
-22.075
11
59.3875
21
-35.075
0
ARC
8
0
10
45.8875
20
-22.075
40
0.5
50
90
51
180
0
ARC
8
0
10
58.8875
20
-22.075
40
0.5
50
0
51
90
0
ARC
8
0
10
45.8875
20
-35.075
40
0.5
50
180
51
270
0
ARC
8
0
10
58.8875
20
-35.075
40
0.5
50
270
51
0
0
LINE
8
0
10
64.9375
20
-21.575
11
77.9375
21
-21.575
0
LINE
8
0
10
64.9375
20
-35.575
11
77.9375
21
-35.575
0
LINE
8
0
10
64.4375
20
-22.075
11
64.4375
21
-35.075
0
LINE
8
0
10
78.4375
20
-22.075
11
78.4375
21
-35.075
0
ARC
8
0
10
64.9375
20
-22.075
40
0.5
50
90
51
180
0
ARC
8
0
10
77.9375
20
-22.075
40
0.5
50
0
51
90
0
ARC
8
0
10
64.9375
20
-35.075
40
0.5
50
180
51
270
0
ARC
8
0
10
77.9375
20
-35.075
40
0.5
50
270
51
0
0
LINE
8
0
10
14.93125
20
-40.625
11
27.93125
21
-40.625
0
LINE
8
0
10
14.93125
20
-54.625
11
27.93125
21
-54.625
0
LINE
8
0
10
14.43125
20
-41.125
11
14.43125
21
-54.125
0
LINE
8
0
10
28.43125
20
-41.125
11
28.43125
21
-54.125
0
ARC
8
0
10
14.93125
20
-41.125
40
0.5
50
90
51
180
0
ARC
8
0
10
27.93125
20
-41.125
40
0.5
50
0
51
90
0
ARC
8
0
10
14.93125
20
-54.125
40
0.5
50
180
51
270
0
ARC
8
0
10
27.93125
20
-54.125
40
0.5
50
270
51
0
0
LINE
8
0
10
45.8875
20
-40.625
11
58.8875
21
-40.625
0
LINE
8
0
10
45.8875
20
-54.625
11
58.8875
21
-54.625
0
LINE
8
0
10
45.3875
20
-41.125
11
45.3875
21
-54.125
0
LINE
8
0
10
59.3875
20
-41.125
11
59.3875
21
-54.125
0
ARC
8
0
10
45.8875
20
-41.125
40
0.5
50
90
51
180
0
ARC
8
0
10
58.8875
20
-41.125
40
0.5
50
0
51
90
0
ARC
8
0
10
45.8875
20
-54.125
40
0.5
50
180
51
270
0
ARC
8
0
10
58.8875
20
-54.125
40
0.5
50
270
51
0
0
LINE
8
0
10
37.4495
20
-41.625
11
43.4495
21
-41.625
0
LINE
8
0
10
37.4495
20
-56.625
11
43.4495
21
-56.625
0
LINE
8
0
10
36.9495
20
-42.125
11
36.9495
21
-56.125
0
LINE
8
0
10
43.9495
20
-42.125
11
43.9495
21
-56.125
0
ARC
8
0
10
37.4495
20
-42.125
40
0.5
50
90
51
180
0
ARC
8
0
10
43.4495
20
-42.125
40
0.5
50
0
51
90
0
ARC
8
0
10
37.4495
20
-56.125
40
0.5
50
180
51
270
0
ARC
8
0
10
43.4495
20
-56.125
40
0.5
50
270
51
0
0
LINE
8
0
10
61.3255
20
-41.625
11
67.3255
21
-41.625
0
LINE
8
0
10
61.3255
20
-56.625
11
67.3255
21
-56.625
0
LINE
8
0
10
60.8255
20
-42.125
11
60.8255
21
-56.125
0
LINE
8
0
10
67.8255
20
-42.125
11
67.8255
21
-56.125
0
ARC
8
0
10
61.3255
20
-42.125
40
0.5
50
90
51
180
0
ARC
8
0
10
67.3255
20
-42.125
40
0.5
50
0
51
90
0
ARC
8
0
10
61.3255
20
-56.125
40
0.5
50
180
51
270
0
ARC
8
0
10
67.3255
20
-56.125
40
0.5
50
270
51
0
0
LINE
8
0
10
76.84375
20
-40.625
11
89.84375
21
-40.625
0
LINE
8
0
10
76.84375
20
-54.625
11
89.84375
21
-54.625
0
LINE
8
0
10
76.34375
20
-41.125
11
76.34375
21
-54.125
0
LINE
8
0
10
90.34375
20
-41.125
11
90.34375
21
-54.125
0
ARC
8
0
10
76.84375
20
-41.125
40
0.5
50
90
51
180
0
ARC
8
0
10
89.84375
20
-41.125
40
0.5
50
0
51
90
0
ARC
8
0
10
76.84375
20
-54.125
40
0.5
50
180
51
270
0
ARC
8
0
10
89.84375
20
-54.125
40
0.5
50
270
51
0
0
LINE
8
0
10
0
20
-57.15
11
104.775
21
-57.15
0
LINE
8
0
10
0
20
0
11
104.775
21
0
0
LINE
8
0
10
0
20
-57.15
11
0
21
0
0
LINE
8
0
10
104.775
20
-57.15
11
104.775
21
0
0
ENDSEC
0
EOF